<?xml version="1.0" encoding="UTF-8"?>
<svg xmlns="http://www.w3.org/2000/svg" viewBox="0 0 64 64" width="60" height="60"><g id="Layer_2" data-name="Layer 2"><path fill="#52C306" d="M33,17a7.95,7.95,0,0,0,7.9305-9H46a1,1,0,0,0,0-2H40.411A7.9979,7.9979,0,1,0,33,17ZM33,3a5.9984,5.9984,0,0,1,5.1882,3H27.8118A5.9984,5.9984,0,0,1,33,3ZM27.09,8H38.91A6,6,0,1,1,27.09,8ZM17,34h6a1,1,0,0,1,0,2H17a1,1,0,0,1,0-2ZM2,36a1,1,0,0,1,0-2H13a1,1,0,0,1,0,2Zm18-6a1,1,0,0,1,0-2h3a1,1,0,0,1,0,2ZM2,29a1,1,0,0,1,1-1H16a1,1,0,0,1,0,2H3A1,1,0,0,1,2,29Zm1-6a1,1,0,0,1,1-1h7a1,1,0,0,1,0,2H4A1,1,0,0,1,3,23ZM14,39a1,1,0,0,1,0,2H5a1,1,0,0,1,0-2ZM60,10H46a3.0033,3.0033,0,0,0-3,3V27a2.966,2.966,0,0,0,.1843,1h-.8767l-6.626-7.2119a5.0133,5.0133,0,0,0-2.9941-1.5693l-5.1172-.711A4.9563,4.9563,0,0,0,22.1205,22H15a1,1,0,0,0,0,2h9a1,1,0,0,0,1-1,.9857.9857,0,0,0-.7552-.9506,2.9776,2.9776,0,0,1,3.0506-1.5611l5.1167.7109a3.0092,3.0092,0,0,1,1.7969.9424l6.9228,7.5352A1.0006,1.0006,0,0,0,41.8682,30h8.5424a1.5894,1.5894,0,0,1,.1133,3.1748l-10.353.7393a1.5773,1.5773,0,0,1-1.2808-.5069l-1.1679-1.2656-.0005-.001L30.7456,24.334a1,1,0,1,0-1.4912,1.332l1.4705,1.6456A90.0679,90.0679,0,0,0,28.9634,37.54a1.0014,1.0014,0,0,0,.4775.98L39.4541,44.541a1.5277,1.5277,0,0,1,.4839,2.1572L31.4023,59.502A1.5282,1.5282,0,0,1,28.7959,57.91l5.8379-10.4717a1.0009,1.0009,0,0,0-.37-1.3516l-8.35-4.8633a1,1,0,0,0-1.4038.43L19.8354,51.334l-14.6347,2.21a1.5312,1.5312,0,0,1-1.7285-1.2187l-.02-.1025a1.5207,1.5207,0,0,1,1.1666-1.7842l12.0932-2.7071a.9975.9975,0,0,0,.6821-.541s2.5932-5.37,2.99-6.19H21a1,1,0,0,0,0-2H18a1,1,0,0,0,0,2h.2c-.49.9405-1.2215,2.4512-2.3972,4.8857L4.1821,48.4873a3.5086,3.5086,0,0,0-2.6928,4.1182l.02.1025A3.5288,3.5288,0,0,0,5.5,55.5225l15.1563-2.2891a1.0008,1.0008,0,0,0,.7509-.5547l4.4346-9.1826,6.5679,3.8252-5.36,9.6142A3.5409,3.5409,0,0,0,27.515,61H22a1,1,0,0,0,0,2H39a1,1,0,0,0,0-2H32.7292a3.4224,3.4224,0,0,0,.3372-.3887l8.5357-12.8037a3.5293,3.5293,0,0,0-1.1177-4.9814l-9.4556-5.6856c.3858-3.0361.8081-5.6006,1.3027-7.8926L37.42,34.7637a3.5384,3.5384,0,0,0,2.8936,1.1445l10.3525-.7393A3.6014,3.6014,0,0,0,54,31.5889,3.5425,3.5425,0,0,0,53.6123,30H60a3.0033,3.0033,0,0,0,3-3V13A3.0033,3.0033,0,0,0,60,10Zm-9,2h4v4.5859L53.707,15.293a.9994.9994,0,0,0-1.414,0L51,16.5859ZM61,27a1.0009,1.0009,0,0,1-1,1H46a1.0009,1.0009,0,0,1-1-1V13a1.0009,1.0009,0,0,1,1-1h3v7a1,1,0,0,0,1.707.707L53,17.4141l2.293,2.2929A1,1,0,0,0,57,19V12h3a1.0009,1.0009,0,0,1,1,1Zm-9-4a1,1,0,0,1-1,1H47a1,1,0,0,1,0-2h4A1,1,0,0,1,52,23Zm0,3a1,1,0,0,1-1,1H47a1,1,0,0,1,0-2h4A1,1,0,0,1,52,26Z"/></g></svg>
