<?xml version="1.0" encoding="UTF-8" standalone="no"?>
<!-- Created with Inkscape (http://www.inkscape.org/) -->

<svg
   version="1.1"
   id="svg3633"
   xml:space="preserve"
   width="60"
   height="60"
   viewBox="0 0 682.66669 682.66669"
   xmlns="http://www.w3.org/2000/svg"
   xmlns:svg="http://www.w3.org/2000/svg"><defs
     id="defs3637"><clipPath
       clipPathUnits="userSpaceOnUse"
       id="clipPath3647"><path
         d="M 0,512 H 512 V 0 H 0 Z"
         id="path3645" /></clipPath></defs><g
     id="g3639"
     transform="matrix(1.3333333,0,0,-1.3333333,0,682.66667)"><g
       id="g3641"><g
         id="g3643"
         clip-path="url(#clipPath3647)"><g
           id="g3649"
           transform="translate(321,477)"><path
             d="m 0,0 v 17.579 c 0,5.48 -4.44,9.921 -9.917,9.921 h -293.666 c -5.477,0 -9.917,-4.441 -9.917,-9.921 v -422.1 c 0,-5.479 4.44,-9.921 9.917,-9.921 H -286"
             style="fill:none;stroke:#52C306;stroke-width:15;stroke-linecap:round;stroke-linejoin:round;stroke-miterlimit:10;stroke-dasharray:none;stroke-opacity:1"
             id="path3651" /></g><g
           id="g3653"
           transform="translate(35.7642,388.4746)"><path
             d="m 0,0 v 77.831 c 0,5.48 4.44,9.921 9.918,9.921 h 293.665 c 5.477,0 9.917,-4.441 9.917,-9.921 V 61.192"
             style="fill:none;stroke:#52C306;stroke-width:15;stroke-linecap:round;stroke-linejoin:round;stroke-miterlimit:10;stroke-dasharray:none;stroke-opacity:1"
             id="path3655" /></g><g
           id="g3657"
           transform="translate(63.6646,34.3389)"><path
             d="m 0,0 -17.982,-0.054 c -5.478,0 -9.918,4.442 -9.918,9.921 v 306.771"
             style="fill:none;stroke:#52C306;stroke-width:15;stroke-linecap:round;stroke-linejoin:round;stroke-miterlimit:10;stroke-dasharray:none;stroke-opacity:1"
             id="path3659" /></g><g
           id="g3661"
           transform="translate(377.5,394.8926)"><path
             d="m 0,0 v 44.629 c 0,5.478 -4.44,9.921 -9.918,9.921 h -293.665 c -5.477,0 -9.917,-4.443 -9.917,-9.921 v -422.101 c 0,-5.479 4.44,-9.921 9.917,-9.921 h 234.28 L 0,-318.418 v 57.858"
             style="fill:none;stroke:#52C306;stroke-width:15;stroke-linecap:round;stroke-linejoin:round;stroke-miterlimit:10;stroke-dasharray:none;stroke-opacity:1"
             id="path3663" /></g><g
           id="g3665"
           transform="translate(308.1973,7.5)"><path
             d="m 0,0 v 59.697 c 0,5.48 4.44,9.921 9.918,9.921 h 59.385 z"
             style="fill:none;stroke:#52C306;stroke-width:15;stroke-linecap:round;stroke-linejoin:round;stroke-miterlimit:10;stroke-dasharray:none;stroke-opacity:1"
             id="path3667" /></g><g
           id="g3669"
           transform="translate(121.5229,369.9102)"><path
             d="M 0,0 H 127.161"
             style="fill:none;stroke:#52C306;stroke-width:15;stroke-linecap:round;stroke-linejoin:round;stroke-miterlimit:10;stroke-dasharray:none;stroke-opacity:1"
             id="path3671" /></g><g
           id="g3673"
           transform="translate(121.5229,311.7051)"><path
             d="M 0,0 104.161,0.078"
             style="fill:none;stroke:#52C306;stroke-width:15;stroke-linecap:round;stroke-linejoin:round;stroke-miterlimit:10;stroke-dasharray:none;stroke-opacity:1"
             id="path3675" /></g><g
           id="g3677"
           transform="translate(121.5229,253.5)"><path
             d="M 0,0 87.161,0.078"
             style="fill:none;stroke:#52C306;stroke-width:15;stroke-linecap:round;stroke-linejoin:round;stroke-miterlimit:10;stroke-dasharray:none;stroke-opacity:1"
             id="path3679" /></g><g
           id="g3681"
           transform="translate(121.5229,195.2959)"><path
             d="M 0,0 88.811,0.077"
             style="fill:none;stroke:#52C306;stroke-width:15;stroke-linecap:round;stroke-linejoin:round;stroke-miterlimit:10;stroke-dasharray:none;stroke-opacity:1"
             id="path3683" /></g><g
           id="g3685"
           transform="translate(121.5229,137.0908)"><path
             d="M 0,0 125.125,0.077"
             style="fill:none;stroke:#52C306;stroke-width:15;stroke-linecap:round;stroke-linejoin:round;stroke-miterlimit:10;stroke-dasharray:none;stroke-opacity:1"
             id="path3687" /></g><g
           id="g3689"
           transform="translate(121.5229,78.8857)"><path
             d="M 0,0 123.477,0.077"
             style="fill:none;stroke:#52C306;stroke-width:15;stroke-linecap:round;stroke-linejoin:round;stroke-miterlimit:10;stroke-dasharray:none;stroke-opacity:1"
             id="path3691" /></g><g
           id="g3693"
           transform="translate(289.4736,349.7139)"><path
             d="M 0,0 H 176.914"
             style="fill:none;stroke:#52C306;stroke-width:15;stroke-linecap:round;stroke-linejoin:round;stroke-miterlimit:10;stroke-dasharray:none;stroke-opacity:1"
             id="path3695" /></g><g
           id="g3697"
           transform="translate(438.8472,136.1055)"><path
             d="m 0,0 h 19.177 c 0,18.529 -15.02,33.55 -33.549,33.55 h -93.089 C -125.99,33.55 -141.01,18.529 -141.01,0 h 101.396"
             style="fill:none;stroke:#52C306;stroke-width:15;stroke-linecap:round;stroke-linejoin:round;stroke-miterlimit:10;stroke-dasharray:none;stroke-opacity:1"
             id="path3699" /></g><path
           d="M 392.24,169.729 H 363.621 V 349.483 H 392.24 Z"
           style="fill:none;stroke:#52C306;stroke-width:15;stroke-linecap:round;stroke-linejoin:round;stroke-miterlimit:10;stroke-dasharray:none;stroke-opacity:1"
           id="path3701" /><g
           id="g3703"
           transform="translate(326.6973,245.5332)"><path
             d="m 0,0 c 0,-20.803 -16.865,-37.668 -37.668,-37.668 -20.804,0 -37.668,16.865 -37.668,37.668 z"
             style="fill:none;stroke:#52C306;stroke-width:15;stroke-linecap:round;stroke-linejoin:round;stroke-miterlimit:10;stroke-dasharray:none;stroke-opacity:1"
             id="path3705" /></g><g
           id="g3707"
           transform="translate(251.3613,245.5332)"><path
             d="M 0,0 37.668,103.569 75.336,0"
             style="fill:none;stroke:#52C306;stroke-width:15;stroke-linecap:round;stroke-linejoin:round;stroke-miterlimit:10;stroke-dasharray:none;stroke-opacity:1"
             id="path3709" /></g><g
           id="g3711"
           transform="translate(504.5,245.5332)"><path
             d="m 0,0 c 0,-20.803 -16.865,-37.668 -37.668,-37.668 -20.804,0 -37.668,16.865 -37.668,37.668 z"
             style="fill:none;stroke:#52C306;stroke-width:15;stroke-linecap:round;stroke-linejoin:round;stroke-miterlimit:10;stroke-dasharray:none;stroke-opacity:1"
             id="path3713" /></g><g
           id="g3715"
           transform="translate(429.1641,245.5332)"><path
             d="M 0,0 37.668,103.569 75.336,0"
             style="fill:none;stroke:#52C306;stroke-width:15;stroke-linecap:round;stroke-linejoin:round;stroke-miterlimit:10;stroke-dasharray:none;stroke-opacity:1"
             id="path3717" /></g><g
           id="g3719"
           transform="translate(332.6333,349.5957)"><path
             d="M 0,0 C 0,25.017 20.28,45.297 45.297,45.297 70.314,45.297 90.595,25.017 90.595,0 Z"
             style="fill:none;stroke:#52C306;stroke-width:15;stroke-linecap:round;stroke-linejoin:round;stroke-miterlimit:10;stroke-dasharray:none;stroke-opacity:1"
             id="path3721" /></g></g></g></g></svg>
