<svg id="Layer_1" enable-background="new 0 0 512 512" height="60" viewBox="0 0 512 512" width="60" xmlns="http://www.w3.org/2000/svg"><path fill="#52C306" d="m262.778 95.244c0-25.037-20.369-45.406-45.406-45.406s-45.406 20.369-45.406 45.406 20.369 45.406 45.406 45.406 45.406-20.369 45.406-45.406zm-45.406 29.406c-16.215 0-29.406-13.191-29.406-29.406s13.191-29.406 29.406-29.406 29.406 13.191 29.406 29.406-13.192 29.406-29.406 29.406zm233.777 62.741v-34.608c0-4.418-3.582-8-8-8h-10.751v-40.036c17.343-9.409 28.279-27.542 28.278-47.575 0-20.513-11.373-39.022-29.681-48.307-2.479-1.257-5.435-1.138-7.805.317-2.369 1.455-3.813 4.037-3.813 6.817v41.768l-12.836 7.412-12.837-7.412.002-41.767c0-2.78-1.444-5.362-3.813-6.817-2.37-1.455-5.326-1.574-7.805-.317-18.309 9.284-29.682 27.794-29.682 48.307 0 20.034 10.937 38.166 28.278 47.574v40.037h-65.66l.001-59.292 9.661-21.013c.738-1.606.924-3.413.527-5.137l-10.393-45.136c-.836-3.632-4.069-6.205-7.796-6.205l-30.281-.001c-3.727 0-6.96 2.573-7.796 6.205l-2.187 9.499c-1.397-.166-2.84.015-4.185.611l-9.15 4.063c-4.549-2.458-9.323-4.438-14.269-5.916l-3.594-9.337c-1.188-3.087-4.156-5.125-7.466-5.125h-21.448c-3.31 0-6.276 2.037-7.466 5.126l-3.595 9.337c-4.945 1.479-9.72 3.458-14.269 5.916l-9.15-4.063c-3.025-1.344-6.563-.687-8.904 1.654l-15.167 15.167c-2.34 2.341-2.997 5.88-1.654 8.904l4.063 9.149c-2.458 4.549-4.438 9.324-5.917 14.271l-9.335 3.593c-3.088 1.188-5.126 4.156-5.126 7.466v21.448c0 3.31 2.038 6.277 5.126 7.466l9.334 3.593c1.479 4.949 3.459 9.726 5.917 14.274l-4.062 9.146c-1.343 3.024-.686 6.563 1.654 8.904l15.167 15.167c2.341 2.34 5.879 2.995 8.904 1.654l9.15-4.064c4.55 2.458 9.324 4.438 14.27 5.916l3.594 9.337c1.188 3.088 4.156 5.126 7.466 5.126h21.448c3.31 0 6.277-2.038 7.466-5.126l3.593-9.334c1.124-.336 2.235-.712 3.342-1.1v17.081h-93.579l-12.548-51.977c-3.886-16.099-18.146-27.342-34.68-27.342h-29.467c-11.523 0-20.899 9.376-20.899 20.9 0 11.523 9.376 20.899 20.899 20.899h24.725l46.443 192.389c-18.878 9.432-31.13 28.822-31.13 50.283 0 27.764 20.242 50.876 46.739 55.39-.559 2.995-.865 6.077-.865 9.231 0 27.69 22.527 50.218 50.218 50.218s50.218-22.527 50.218-50.218c0-2.869-.255-5.679-.719-8.418h57.204c-.464 2.739-.719 5.549-.719 8.418 0 27.69 22.527 50.218 50.218 50.218s50.218-22.527 50.218-50.218-22.527-50.218-50.218-50.218h-196.09c-7.942 0-14.404-6.461-14.404-14.403s6.462-14.403 14.404-14.403h198.928c25.017 0 46.784-16.085 54.167-40.024l37.766-122.439c2.4-6.35 1.558-13.475-2.279-19.129-1.587-2.336-3.603-4.28-5.898-5.774zm-59.366-95.043c-14.201-5.967-23.377-19.774-23.377-35.176 0-9.393 3.386-18.19 9.3-24.995l-.001 30.21c0 2.858 1.524 5.499 4 6.928l20.837 12.03c2.475 1.43 5.525 1.43 8 0l20.836-12.031c2.476-1.429 4-4.069 4-6.928v-30.209c5.913 6.805 9.299 15.603 9.299 24.995.001 15.401-9.175 29.209-23.377 35.176-2.97 1.247-4.901 4.154-4.901 7.375v45.061h-19.714v-45.061c-.001-3.221-1.933-6.128-4.902-7.375zm-91.125-68.347 8.352 36.272-9.253 20.125c-.481 1.048-.731 2.188-.731 3.342l-.001 61.043h-14.281v-61.044c0-1.153-.25-2.294-.731-3.342l-9.253-20.124 8.35-36.273zm-69.36 129.574c-2.566.611-4.667 2.447-5.614 4.909l-3.081 8.003h-10.462l-3.082-8.006c-.947-2.462-3.048-4.298-5.614-4.908-6.168-1.468-12.043-3.904-17.461-7.24-2.248-1.384-5.032-1.568-7.441-.499l-7.849 3.486-7.398-7.398 3.484-7.845c1.07-2.411.884-5.195-.5-7.442-3.335-5.415-5.771-11.291-7.24-17.465-.61-2.566-2.446-4.667-4.908-5.614l-8.003-3.081v-10.462l8.004-3.081c2.462-.947 4.298-3.048 4.908-5.614 1.469-6.169 3.904-12.044 7.24-17.461 1.384-2.247 1.57-5.031.5-7.442l-3.485-7.848 7.398-7.398 7.849 3.485c2.409 1.07 5.193.885 7.441-.499 5.418-3.336 11.293-5.772 17.461-7.24 2.565-.61 4.666-2.446 5.613-4.908l3.082-8.007h10.463l3.082 8.006c.947 2.462 3.048 4.298 5.613 4.908 6.168 1.468 12.043 3.904 17.461 7.24 2.248 1.384 5.032 1.569 7.441.499l6.389-2.837-4.035 17.525c-.396 1.724-.211 3.53.527 5.137l9.661 21.012v59.293h-18.246c-3.173 0-5.908 1.853-7.201 4.532-3.836 1.843-7.856 3.276-11.997 4.26zm27.199 7.208h176.652v23.225h-176.652zm-50.144 327.217c-18.868 0-34.218-15.35-34.218-34.218s15.35-34.218 34.218-34.218 34.218 15.35 34.218 34.218-15.35 34.218-34.218 34.218zm43.86-58.636c-1.987-3.555-4.393-6.843-7.151-9.8h82.784c-2.759 2.957-5.164 6.245-7.151 9.8zm146.559 24.418c0 18.868-15.35 34.218-34.218 34.218s-34.218-15.35-34.218-34.218 15.35-34.218 34.218-34.218 34.218 15.35 34.218 34.218zm45.557-247.067c-.078.196-.148.396-.211.597l-37.848 122.706c-5.302 17.19-20.925 28.74-38.878 28.74h-198.928c-16.765 0-30.404 13.639-30.404 30.403s13.64 30.403 30.404 30.403h3.18c-2.709 2.904-5.076 6.129-7.042 9.61-20.363-1.95-36.341-19.149-36.341-40.014 0-17.111 10.898-32.385 27.119-38.007 3.892-1.349 6.123-5.432 5.156-9.436l-49.16-203.642c-1.097-4.539-4.989-7.588-9.687-7.588h-29.466c-2.701 0-4.899-2.198-4.899-4.899 0-2.702 2.198-4.9 4.899-4.9h29.467c9.116 0 16.981 6.208 19.127 15.096l14.025 58.1c.867 3.593 4.081 6.123 7.776 6.123h297.152c2.247 0 3.493 1.342 4.035 2.141.444.654 1.382 2.407.524 4.567zm-21.998 3.093h-273.484c-2.452 0-4.769 1.125-6.285 3.051-1.518 1.927-2.066 4.442-1.491 6.826l29.729 123.15c.867 3.593 4.081 6.123 7.776 6.123h188.815c13.887 0 25.496-8.551 29.577-21.783l33.006-107.01c.749-2.427.301-5.064-1.208-7.108-1.507-2.043-3.895-3.249-6.435-3.249zm-86.94 81.704h-43.178v-25.05h43.178zm16-25.05h47.561l-7.727 25.05h-39.834zm-182.568 0h48.212v25.05h-42.165zm64.212 0h43.179v25.05h-43.179zm0-16v-24.654h43.179v24.654zm43.178 57.05v25.446h-43.179v-25.446zm16 0h43.178v25.446h-43.178zm0-57.05v-24.654h43.178v24.654zm-75.178-24.654v24.654h-52.075l-5.952-24.654zm-38.303 81.704h38.302v25.446h-32.159zm188.66 25.446h-16.001v-25.446h34.899l-4.61 14.947c-1.997 6.477-7.472 10.499-14.288 10.499zm36.495-82.496h-52.496v-24.654h60.101zm-195.534 178.131c-13.89 0-25.189 11.3-25.189 25.189s11.3 25.189 25.189 25.189 25.188-11.3 25.188-25.189-11.299-25.189-25.188-25.189zm0 34.379c-5.067 0-9.189-4.122-9.189-9.189s4.122-9.189 9.189-9.189c5.066 0 9.188 4.122 9.188 9.189s-4.122 9.189-9.188 9.189zm156.201 16c13.889 0 25.188-11.3 25.188-25.189s-11.3-25.189-25.188-25.189c-13.89 0-25.189 11.3-25.189 25.189s11.3 25.189 25.189 25.189zm0-34.379c5.066 0 9.188 4.122 9.188 9.189s-4.122 9.189-9.188 9.189c-5.067 0-9.189-4.122-9.189-9.189s4.122-9.189 9.189-9.189z"/></svg>