<?xml version="1.0" encoding="UTF-8" standalone="no"?>
<!-- Created with Inkscape (http://www.inkscape.org/) -->

<svg
   version="1.1"
   id="svg807"
   xml:space="preserve"
   width="60"
   height="60"
   viewBox="0 0 682.66669 682.66669"
   xmlns="http://www.w3.org/2000/svg"
   xmlns:svg="http://www.w3.org/2000/svg"><defs
     id="defs811"><clipPath
       clipPathUnits="userSpaceOnUse"
       id="clipPath821"><path
         d="M 0,512 H 512 V 0 H 0 Z"
         id="path819" /></clipPath></defs><g
     id="g813"
     transform="matrix(1.3333333,0,0,-1.3333333,0,682.66667)"><g
       id="g815"><g
         id="g817"
         clip-path="url(#clipPath821)"><g
           id="g823"
           transform="translate(46.6357,169.7461)"><path
             d="M 0,0 H 39.996 C 49.095,0 56.55,-7.456 56.55,-16.555 v -104.968 c 0,-9.071 -7.455,-16.527 -16.554,-16.527 H 0 c -9.1,0 -16.526,7.456 -16.526,16.527 V -16.555 C -16.526,-7.456 -9.1,0 0,0 Z"
             style="fill:none;stroke:#52C306;stroke-width:20.148;stroke-linecap:round;stroke-linejoin:round;stroke-miterlimit:10;stroke-dasharray:none;stroke-opacity:1"
             id="path825" /></g><g
           id="g827"
           transform="translate(103.1855,151.519)"><path
             d="m 0,0 h 20.807 c 7.908,0.34 9.042,0.312 17.659,3.713 40.082,15.818 72.821,17.661 112.931,-20.098 5.017,-4.705 6.151,-6.037 14.145,-6.037 h 54.396 c 14.825,0 26.986,-12.133 26.986,-26.987 0,-14.825 -12.161,-26.958 -26.986,-26.958 h -88.157"
             style="fill:none;stroke:#52C306;stroke-width:20.148;stroke-linecap:round;stroke-linejoin:round;stroke-miterlimit:10;stroke-dasharray:none;stroke-opacity:1"
             id="path829" /></g><g
           id="g831"
           transform="translate(354.3047,212.6064)"><path
             d="m 0,0 c 15.307,3.43 29.621,9.468 42.462,17.604 l 9.184,-9.185 c 4.819,-4.847 12.728,-4.847 17.546,0 l 24.605,24.577 c 4.819,4.819 4.819,12.728 0,17.546 l -9.184,9.185 c 8.135,12.87 14.145,27.185 17.603,42.463 h 12.954 c 6.832,0 12.416,5.613 12.416,12.416 v 34.782 c 0,6.832 -5.584,12.416 -12.416,12.416 h -12.954 c -3.458,15.279 -9.468,29.594 -17.603,42.464 l 9.184,9.184 c 4.819,4.819 4.819,12.728 0,17.547 l -24.605,24.577 c -4.818,4.847 -12.727,4.847 -17.546,0 l -9.184,-9.185 C 29.621,254.527 15.307,260.565 0,264.023 v 12.955 c 0,6.831 -5.584,12.416 -12.416,12.416 h -34.752 c -6.832,0 -12.416,-5.585 -12.416,-12.416 v -12.955 c -15.307,-3.458 -29.622,-9.496 -42.491,-17.632 l -9.184,9.185 c -4.819,4.847 -12.727,4.847 -17.546,0 l -24.576,-24.577 c -4.819,-4.819 -4.819,-12.728 0,-17.547 l 9.184,-9.184 c -8.135,-12.87 -14.173,-27.185 -17.603,-42.464 h -12.982 c -6.832,0 -12.416,-5.584 -12.416,-12.416 v -34.782 c 0,-6.803 5.584,-12.416 12.416,-12.416 h 12.982 c 3.43,-15.278 9.468,-29.593 17.603,-42.463 l -9.184,-9.185 c -4.819,-4.818 -4.819,-12.727 0,-17.546 l 24.576,-24.577 c 4.819,-4.847 12.727,-4.847 17.546,0 l 9.184,9.185 C -89.206,9.468 -74.891,3.43 -59.584,0 v -12.983 c 0,-6.831 5.584,-12.416 12.416,-12.416 h 34.752 c 6.832,0 12.416,5.585 12.416,12.416 z"
             style="fill:none;stroke:#52C306;stroke-width:20.148;stroke-linecap:round;stroke-linejoin:round;stroke-miterlimit:10;stroke-dasharray:none;stroke-opacity:1"
             id="path833" /></g><g
           id="g835"
           transform="translate(354.3047,212.6064)"><path
             d="m 0,0 v 63.043 c 29.934,11.112 51.42,40.026 51.42,73.731 0,26.901 -13.691,50.741 -34.469,64.943 -21.77,14.882 -17.575,-8.646 -17.575,-12.615 v -47.197 c 0,-16.498 -12.926,-30.133 -29.168,-31.21 -16.242,1.077 -29.196,14.712 -29.196,31.21 v 47.197 c 0,3.969 4.223,27.497 -17.575,12.615 -20.778,-14.202 -34.469,-38.042 -34.469,-64.943 0,-33.705 21.486,-62.619 51.448,-73.731 V 0"
             style="fill:none;stroke:#52C306;stroke-width:20.148;stroke-linecap:round;stroke-linejoin:round;stroke-miterlimit:10;stroke-dasharray:none;stroke-opacity:1"
             id="path837" /></g><g
           id="g839"
           transform="translate(353.2559,38.5566)"><path
             d="m 0,0 -19.758,-14.089 c -34.582,-23.046 -49.18,-13.974 -85.577,-4.138 L -208.854,9.468 c -6.208,1.672 -5.84,1.87 -10.064,1.87 H -250.07 M -6.463,76.48 80.418,121.098 c 12.756,6.548 28.346,3.741 35.857,-8.448 7.54,-12.189 3.204,-27.553 -8.447,-35.858 L 73.161,52.102 M 36.623,26.079 36.595,26.051"
             style="fill:none;stroke:#52C306;stroke-width:20.148;stroke-linecap:round;stroke-linejoin:round;stroke-miterlimit:10;stroke-dasharray:none;stroke-opacity:1"
             id="path841" /></g></g></g></g></svg>
